<svg width="18px" height="18px" viewBox="0 0 18 18" version="1.1" xmlns="http://www.w3.org/2000/svg" xmlns:xlink="http://www.w3.org/1999/xlink">
  <g stroke="none" stroke-width="1" fill="none" fill-rule="evenodd">
    <g fill="#42526E">
      <path d="M3.83225806,11.3516129 C3.83225806,12.3822581 2.99032258,13.2241935 1.95967742,13.2241935 C0.929032258,13.2241935 0.0870967742,12.3822581 0.0870967742,11.3516129 C0.0870967742,10.3209677 0.929032258,9.47903226 1.95967742,9.47903226 L3.83225806,9.47903226 L3.83225806,11.3516129 Z"></path>
      <path d="M4.77580645,11.3516129 C4.77580645,10.3209677 5.61774194,9.47903226 6.6483871,9.47903226 C7.67903226,9.47903226 8.52096774,10.3209677 8.52096774,11.3516129 L8.52096774,16.0403226 C8.52096774,17.0709677 7.67903226,17.9129032 6.6483871,17.9129032 C5.61774194,17.9129032 4.77580645,17.0709677 4.77580645,16.0403226 C4.77580645,16.0403226 4.77580645,11.3516129 4.77580645,11.3516129 Z"></path>
      <path d="M6.6483871,3.83225806 C5.61774194,3.83225806 4.77580645,2.99032258 4.77580645,1.95967742 C4.77580645,0.929032258 5.61774194,0.0870967742 6.6483871,0.0870967742 C7.67903226,0.0870967742 8.52096774,0.929032258 8.52096774,1.95967742 L8.52096774,3.83225806 L6.6483871,3.83225806 Z"></path>
      <path d="M6.6483871,4.77580645 C7.67903226,4.77580645 8.52096774,5.61774194 8.52096774,6.6483871 C8.52096774,7.67903226 7.67903226,8.52096774 6.6483871,8.52096774 L1.95967742,8.52096774 C0.929032258,8.52096774 0.0870967742,7.67903226 0.0870967742,6.6483871 C0.0870967742,5.61774194 0.929032258,4.77580645 1.95967742,4.77580645 C1.95967742,4.77580645 6.6483871,4.77580645 6.6483871,4.77580645 Z"></path>
      <path d="M14.1677419,6.6483871 C14.1677419,5.61774194 15.0096774,4.77580645 16.0403226,4.77580645 C17.0709677,4.77580645 17.9129032,5.61774194 17.9129032,6.6483871 C17.9129032,7.67903226 17.0709677,8.52096774 16.0403226,8.52096774 L14.1677419,8.52096774 L14.1677419,6.6483871 Z"></path>
      <path d="M13.2241935,6.6483871 C13.2241935,7.67903226 12.3822581,8.52096774 11.3516129,8.52096774 C10.3209677,8.52096774 9.47903226,7.67903226 9.47903226,6.6483871 L9.47903226,1.95967742 C9.47903226,0.929032258 10.3209677,0.0870967742 11.3516129,0.0870967742 C12.3822581,0.0870967742 13.2241935,0.929032258 13.2241935,1.95967742 L13.2241935,6.6483871 Z"></path>
      <path d="M11.3516129,14.1677419 C12.3822581,14.1677419 13.2241935,15.0096774 13.2241935,16.0403226 C13.2241935,17.0709677 12.3822581,17.9129032 11.3516129,17.9129032 C10.3209677,17.9129032 9.47903226,17.0709677 9.47903226,16.0403226 L9.47903226,14.1677419 L11.3516129,14.1677419 Z"></path>
      <path d="M11.3516129,13.2241935 C10.3209677,13.2241935 9.47903226,12.3822581 9.47903226,11.3516129 C9.47903226,10.3209677 10.3209677,9.47903226 11.3516129,9.47903226 L16.0403226,9.47903226 C17.0709677,9.47903226 17.9129032,10.3209677 17.9129032,11.3516129 C17.9129032,12.3822581 17.0709677,13.2241935 16.0403226,13.2241935 L11.3516129,13.2241935 Z"></path>
    </g>
  </g>
</svg>
